# xmcd
#
# Track frame offsets:
#	150
#	14190
#	27265
#	39325
#	50365
#	61225
#	72307
#	83362
#	96885
#	106975
#	118882
#	128775
#	141687
#	154517
#	164857
#	178252
#	192762
#	206252
#	218110
#	234730
#	248520
#	260185
#
# Disc length: 3629 seconds
#
# Revision: 0
# Processed by: cddbd v1.4PL0 Copyright (c) Steve Scherf et al.
# Submitted via: dBpowerAMP V4.0
#
DISCID=430e2b16
DTITLE=Freddy Weller - The Very Best Of
DYEAR=1900
DGENRE=Country
TTITLE0=home
TTITLE1=games people play
TTITLE2=these are not my people
TTITLE3=down in the boondocks
TTITLE4=the promised land
TTITLE5=indian lake
TTITLE6=another night of love
TTITLE7=ballad of a hillbilly singer
TTITLE8=the roadmaster
TTITLE9=she loves me (right out of my mind)
TTITLE10=too much monkey business
TTITLE11=the perfect stranger
TTITLE12=i've just got to know (how loving you would be)
TTITLE13=sexy lady
TTITLE14=you're not getting older (you're getting better)
TTITLE15=nobody cares but you
TTITLE16=bar wars
TTITLE17=love got in the way
TTITLE18=fantasy island
TTITLE19=nadine
TTITLE20=go for the night
TTITLE21=the legend of paul revere and the raiders
EXTD=
EXTT0=
EXTT1=
EXTT2=
EXTT3=
EXTT4=
EXTT5=
EXTT6=
EXTT7=
EXTT8=
EXTT9=
EXTT10=
EXTT11=
EXTT12=
EXTT13=
EXTT14=
EXTT15=
EXTT16=
EXTT17=
EXTT18=
EXTT19=
EXTT20=
EXTT21=
PLAYORDER=
